<?xml version="1.0" encoding="UTF-8" standalone="no"?>
<!DOCTYPE svg PUBLIC "-//W3C//DTD SVG 1.1//EN"
 "http://www.w3.org/Graphics/SVG/1.1/DTD/svg11.dtd">
<!-- Generated by graphviz version 14.1.3 (20260303.0454)
 -->
<!-- Pages: 1 -->
<svg width="150pt" height="132pt"
 viewBox="0.00 0.00 150.00 132.00" xmlns="http://www.w3.org/2000/svg" xmlns:xlink="http://www.w3.org/1999/xlink">
<g id="graph0" class="graph" transform="scale(1 1) rotate(0) translate(4 128)">
<polygon fill="white" stroke="none" points="-4,4 -4,-128 146,-128 146,4 -4,4"/>
<g id="clust3" class="cluster">
<title>cluster_associated</title>
</g>
<!-- Agent -->
<g id="node1" class="node">
<title>Agent</title>
<g id="a_node1"><a xlink:href="../Agent" xlink:title="&lt;TABLE&gt;">
<polygon fill="lightgray" stroke="none" points="10.25,-97.88 10.25,-114.12 43.75,-114.12 43.75,-97.88 10.25,-97.88"/>
<text xml:space="preserve" text-anchor="start" x="11.25" y="-101.88" font-family="Arial" font-size="12.00">Agent</text>
<polygon fill="none" stroke="black" points="9.25,-96.88 9.25,-115.12 44.75,-115.12 44.75,-96.88 9.25,-96.88"/>
</a>
</g>
</g>
<!-- Group -->
<g id="node2" class="node">
<title>Group</title>
<g id="a_node2"><a xlink:href="../Group" xlink:title="&lt;TABLE&gt;">
<polygon fill="lightgray" stroke="none" points="9.5,-25.88 9.5,-42.12 44.5,-42.12 44.5,-25.88 9.5,-25.88"/>
<text xml:space="preserve" text-anchor="start" x="10.5" y="-29.88" font-family="Arial" font-size="12.00">Group</text>
<polygon fill="none" stroke="black" points="8.5,-24.88 8.5,-43.12 45.5,-43.12 45.5,-24.88 8.5,-24.88"/>
</a>
</g>
</g>
<!-- Group&#45;&gt;Agent -->
<g id="edge1" class="edge">
<title>Group&#45;&gt;Agent</title>
<path fill="none" stroke="black" d="M27,-51.79C27,-59.25 27,-68.24 27,-76.69"/>
<polygon fill="none" stroke="black" points="23.5,-76.54 27,-86.54 30.5,-76.54 23.5,-76.54"/>
</g>
<!-- Invis -->
</g>
</svg>
