<?xml version="1.0" encoding="UTF-8" standalone="no"?>
<!DOCTYPE svg PUBLIC "-//W3C//DTD SVG 1.1//EN"
 "http://www.w3.org/Graphics/SVG/1.1/DTD/svg11.dtd">
<!-- Generated by graphviz version 14.0.2 (20251019.1705)
 -->
<!-- Pages: 1 -->
<svg width="152pt" height="132pt"
 viewBox="0.00 0.00 152.00 132.00" xmlns="http://www.w3.org/2000/svg" xmlns:xlink="http://www.w3.org/1999/xlink">
<g id="graph0" class="graph" transform="scale(1 1) rotate(0) translate(4 128)">
<polygon fill="white" stroke="none" points="-4,4 -4,-128 148.38,-128 148.38,4 -4,4"/>
<g id="clust2" class="cluster">
<title>cluster_associated</title>
</g>
<!-- Image -->
<g id="node1" class="node">
<title>Image</title>
<g id="a_node1"><a xlink:href="../Image" xlink:title="&lt;TABLE&gt;">
<polygon fill="lightgray" stroke="none" points="11.88,-81.88 11.88,-98.12 46.88,-98.12 46.88,-81.88 11.88,-81.88"/>
<text xml:space="preserve" text-anchor="start" x="12.88" y="-85.72" font-family="Arial" font-size="12.00">Image</text>
<polygon fill="none" stroke="black" points="10.88,-80.88 10.88,-99.12 47.88,-99.12 47.88,-80.88 10.88,-80.88"/>
</a>
</g>
</g>
<!-- Document -->
<g id="node3" class="node">
<title>Document</title>
<g id="a_node3"><a xlink:href="../Document" xlink:title="&lt;TABLE&gt;">
<polygon fill="lightgray" stroke="none" points="1,-9.88 1,-26.12 57.75,-26.12 57.75,-9.88 1,-9.88"/>
<text xml:space="preserve" text-anchor="start" x="2" y="-13.72" font-family="Arial" font-size="12.00">Document</text>
<polygon fill="none" stroke="black" points="0,-8.88 0,-27.12 58.75,-27.12 58.75,-8.88 0,-8.88"/>
</a>
</g>
</g>
<!-- Image&#45;&gt;Document -->
<g id="edge1" class="edge">
<title>Image&#45;&gt;Document</title>
<path fill="none" stroke="black" d="M29.38,-72.05C29.38,-64.57 29.38,-55.58 29.38,-47.14"/>
<polygon fill="none" stroke="black" points="32.88,-47.3 29.38,-37.3 25.88,-47.3 32.88,-47.3"/>
</g>
<!-- Invis -->
</g>
</svg>
