<?xml version="1.0" encoding="UTF-8" standalone="no"?>
<!DOCTYPE svg PUBLIC "-//W3C//DTD SVG 1.1//EN"
 "http://www.w3.org/Graphics/SVG/1.1/DTD/svg11.dtd">
<!-- Generated by graphviz version 14.1.3 (20260303.0454)
 -->
<!-- Pages: 1 -->
<svg width="220pt" height="132pt"
 viewBox="0.00 0.00 220.00 132.00" xmlns="http://www.w3.org/2000/svg" xmlns:xlink="http://www.w3.org/1999/xlink">
<g id="graph0" class="graph" transform="scale(1 1) rotate(0) translate(4 128)">
<polygon fill="white" stroke="none" points="-4,4 -4,-128 216.38,-128 216.38,4 -4,4"/>
<g id="clust3" class="cluster">
<title>cluster_associated</title>
</g>
<!-- OnlineAccount -->
<g id="node1" class="node">
<title>OnlineAccount</title>
<g id="a_node1"><a xlink:href="../OnlineAccount" xlink:title="&lt;TABLE&gt;">
<polygon fill="lightgray" stroke="none" points="22,-97.88 22,-114.12 102.75,-114.12 102.75,-97.88 22,-97.88"/>
<text xml:space="preserve" text-anchor="start" x="23" y="-101.88" font-family="Arial" font-size="12.00">OnlineAccount</text>
<polygon fill="none" stroke="black" points="21,-96.88 21,-115.12 103.75,-115.12 103.75,-96.88 21,-96.88"/>
</a>
</g>
</g>
<!-- OnlineGamingAccount -->
<g id="node2" class="node">
<title>OnlineGamingAccount</title>
<g id="a_node2"><a xlink:href="../OnlineGamingAccount" xlink:title="&lt;TABLE&gt;">
<polygon fill="lightgray" stroke="none" points="1,-25.88 1,-42.12 123.75,-42.12 123.75,-25.88 1,-25.88"/>
<text xml:space="preserve" text-anchor="start" x="2" y="-29.88" font-family="Arial" font-size="12.00">OnlineGamingAccount</text>
<polygon fill="none" stroke="black" points="0,-24.88 0,-43.12 124.75,-43.12 124.75,-24.88 0,-24.88"/>
</a>
</g>
</g>
<!-- OnlineGamingAccount&#45;&gt;OnlineAccount -->
<g id="edge1" class="edge">
<title>OnlineGamingAccount&#45;&gt;OnlineAccount</title>
<path fill="none" stroke="black" d="M62.38,-51.79C62.38,-59.25 62.38,-68.24 62.38,-76.69"/>
<polygon fill="none" stroke="black" points="58.88,-76.54 62.38,-86.54 65.88,-76.54 58.88,-76.54"/>
</g>
<!-- Invis -->
</g>
</svg>
