<?xml version="1.0" encoding="UTF-8" standalone="no"?>
<!DOCTYPE svg PUBLIC "-//W3C//DTD SVG 1.1//EN"
 "http://www.w3.org/Graphics/SVG/1.1/DTD/svg11.dtd">
<!-- Generated by graphviz version 14.1.3 (20260303.0454)
 -->
<!-- Pages: 1 -->
<svg width="168pt" height="132pt"
 viewBox="0.00 0.00 168.00 132.00" xmlns="http://www.w3.org/2000/svg" xmlns:xlink="http://www.w3.org/1999/xlink">
<g id="graph0" class="graph" transform="scale(1 1) rotate(0) translate(4 128)">
<polygon fill="white" stroke="none" points="-4,4 -4,-128 164.12,-128 164.12,4 -4,4"/>
<g id="clust3" class="cluster">
<title>cluster_associated</title>
</g>
<!-- Agent -->
<g id="node1" class="node">
<title>Agent</title>
<g id="a_node1"><a xlink:href="../Agent" xlink:title="&lt;TABLE&gt;">
<polygon fill="lightgray" stroke="none" points="19.38,-97.88 19.38,-114.12 52.88,-114.12 52.88,-97.88 19.38,-97.88"/>
<text xml:space="preserve" text-anchor="start" x="20.38" y="-101.88" font-family="Arial" font-size="12.00">Agent</text>
<polygon fill="none" stroke="black" points="18.38,-96.88 18.38,-115.12 53.88,-115.12 53.88,-96.88 18.38,-96.88"/>
</a>
</g>
</g>
<!-- Organization -->
<g id="node2" class="node">
<title>Organization</title>
<g id="a_node2"><a xlink:href="../Organization" xlink:title="&lt;TABLE&gt;">
<polygon fill="lightgray" stroke="none" points="1,-25.88 1,-42.12 71.25,-42.12 71.25,-25.88 1,-25.88"/>
<text xml:space="preserve" text-anchor="start" x="2" y="-29.88" font-family="Arial" font-size="12.00">Organization</text>
<polygon fill="none" stroke="black" points="0,-24.88 0,-43.12 72.25,-43.12 72.25,-24.88 0,-24.88"/>
</a>
</g>
</g>
<!-- Organization&#45;&gt;Agent -->
<g id="edge1" class="edge">
<title>Organization&#45;&gt;Agent</title>
<path fill="none" stroke="black" d="M36.12,-51.79C36.12,-59.25 36.12,-68.24 36.12,-76.69"/>
<polygon fill="none" stroke="black" points="32.63,-76.54 36.13,-86.54 39.63,-76.54 32.63,-76.54"/>
</g>
<!-- Invis -->
</g>
</svg>
