<?xml version="1.0" encoding="UTF-8" standalone="no"?>
<!DOCTYPE svg PUBLIC "-//W3C//DTD SVG 1.1//EN"
 "http://www.w3.org/Graphics/SVG/1.1/DTD/svg11.dtd">
<!-- Generated by graphviz version 14.0.2 (20251019.1705)
 -->
<!-- Pages: 1 -->
<svg width="200pt" height="132pt"
 viewBox="0.00 0.00 200.00 132.00" xmlns="http://www.w3.org/2000/svg" xmlns:xlink="http://www.w3.org/1999/xlink">
<g id="graph0" class="graph" transform="scale(1 1) rotate(0) translate(4 128)">
<polygon fill="white" stroke="none" points="-4,4 -4,-128 196,-128 196,4 -4,4"/>
<g id="clust2" class="cluster">
<title>cluster_associated</title>
</g>
<!-- Person -->
<g id="node1" class="node">
<title>Person</title>
<g id="a_node1"><a xlink:href="../Person" xlink:title="&lt;TABLE&gt;">
<polygon fill="lightgray" stroke="none" points="56.88,-81.88 56.88,-98.12 97.12,-98.12 97.12,-81.88 56.88,-81.88"/>
<text xml:space="preserve" text-anchor="start" x="57.88" y="-85.72" font-family="Arial" font-size="12.00">Person</text>
<polygon fill="none" stroke="black" points="55.88,-80.88 55.88,-99.12 98.12,-99.12 98.12,-80.88 55.88,-80.88"/>
</a>
</g>
</g>
<!-- Agent -->
<g id="node3" class="node">
<title>Agent</title>
<g id="a_node3"><a xlink:href="../Agent" xlink:title="&lt;TABLE&gt;">
<polygon fill="lightgray" stroke="none" points="10.25,-9.88 10.25,-26.12 43.75,-26.12 43.75,-9.88 10.25,-9.88"/>
<text xml:space="preserve" text-anchor="start" x="11.25" y="-13.72" font-family="Arial" font-size="12.00">Agent</text>
<polygon fill="none" stroke="black" points="9.25,-8.88 9.25,-27.12 44.75,-27.12 44.75,-8.88 9.25,-8.88"/>
</a>
</g>
</g>
<!-- Person&#45;&gt;Agent -->
<g id="edge1" class="edge">
<title>Person&#45;&gt;Agent</title>
<path fill="none" stroke="black" d="M64.9,-72.05C59.12,-63.97 52.09,-54.12 45.65,-45.11"/>
<polygon fill="none" stroke="black" points="48.53,-43.12 39.87,-37.02 42.84,-47.19 48.53,-43.12"/>
</g>
<!-- wgs84_SpatialThing -->
<g id="node4" class="node">
<title>wgs84_SpatialThing</title>
<g id="a_node4"><a xlink:href="https://w3id.org/citydata/imported/wgs84/latest/SpatialThing" xlink:title="&lt;TABLE&gt;">
<polygon fill="lightgray" stroke="none" points="72.75,-9.88 72.75,-26.12 181.25,-26.12 181.25,-9.88 72.75,-9.88"/>
<text xml:space="preserve" text-anchor="start" x="73.75" y="-13.72" font-family="Arial" font-size="12.00">wgs84:SpatialThing</text>
<polygon fill="none" stroke="black" points="71.75,-8.88 71.75,-27.12 182.25,-27.12 182.25,-8.88 71.75,-8.88"/>
</a>
</g>
</g>
<!-- Person&#45;&gt;wgs84_SpatialThing -->
<g id="edge2" class="edge">
<title>Person&#45;&gt;wgs84_SpatialThing</title>
<path fill="none" stroke="black" d="M89.1,-72.05C94.88,-63.97 101.91,-54.12 108.35,-45.11"/>
<polygon fill="none" stroke="black" points="111.16,-47.19 114.13,-37.02 105.47,-43.12 111.16,-47.19"/>
</g>
<!-- Invis -->
</g>
</svg>
