<?xml version="1.0" encoding="UTF-8" standalone="no"?>
<!DOCTYPE svg PUBLIC "-//W3C//DTD SVG 1.1//EN"
 "http://www.w3.org/Graphics/SVG/1.1/DTD/svg11.dtd">
<!-- Generated by graphviz version 14.1.3 (20260303.0454)
 -->
<!-- Pages: 1 -->
<svg width="200pt" height="132pt"
 viewBox="0.00 0.00 200.00 132.00" xmlns="http://www.w3.org/2000/svg" xmlns:xlink="http://www.w3.org/1999/xlink">
<g id="graph0" class="graph" transform="scale(1 1) rotate(0) translate(4 128)">
<polygon fill="white" stroke="none" points="-4,4 -4,-128 196,-128 196,4 -4,4"/>
<g id="clust3" class="cluster">
<title>cluster_associated</title>
</g>
<!-- Agent -->
<g id="node1" class="node">
<title>Agent</title>
<g id="a_node1"><a xlink:href="../Agent" xlink:title="&lt;TABLE&gt;">
<polygon fill="lightgray" stroke="none" points="10.25,-97.88 10.25,-114.12 43.75,-114.12 43.75,-97.88 10.25,-97.88"/>
<text xml:space="preserve" text-anchor="start" x="11.25" y="-101.88" font-family="Arial" font-size="12.00">Agent</text>
<polygon fill="none" stroke="black" points="9.25,-96.88 9.25,-115.12 44.75,-115.12 44.75,-96.88 9.25,-96.88"/>
</a>
</g>
</g>
<!-- wgs84_SpatialThing -->
<g id="node2" class="node">
<title>wgs84_SpatialThing</title>
<g id="a_node2"><a xlink:href="https://w3id.org/citydata/imported/wgs84/latest/SpatialThing" xlink:title="&lt;TABLE&gt;">
<polygon fill="lightgray" stroke="none" points="72.75,-97.88 72.75,-114.12 181.25,-114.12 181.25,-97.88 72.75,-97.88"/>
<text xml:space="preserve" text-anchor="start" x="73.75" y="-101.88" font-family="Arial" font-size="12.00">wgs84:SpatialThing</text>
<polygon fill="none" stroke="black" points="71.75,-96.88 71.75,-115.12 182.25,-115.12 182.25,-96.88 71.75,-96.88"/>
</a>
</g>
</g>
<!-- Person -->
<g id="node3" class="node">
<title>Person</title>
<g id="a_node3"><a xlink:href="../Person" xlink:title="&lt;TABLE&gt;">
<polygon fill="lightgray" stroke="none" points="56.88,-25.88 56.88,-42.12 97.12,-42.12 97.12,-25.88 56.88,-25.88"/>
<text xml:space="preserve" text-anchor="start" x="57.88" y="-29.88" font-family="Arial" font-size="12.00">Person</text>
<polygon fill="none" stroke="black" points="55.88,-24.88 55.88,-43.12 98.12,-43.12 98.12,-24.88 55.88,-24.88"/>
</a>
</g>
</g>
<!-- Person&#45;&gt;Agent -->
<g id="edge1" class="edge">
<title>Person&#45;&gt;Agent</title>
<path fill="none" stroke="black" d="M65.01,-51.79C59.25,-59.85 52.22,-69.69 45.78,-78.71"/>
<polygon fill="none" stroke="black" points="42.95,-76.65 39.98,-86.82 48.64,-80.72 42.95,-76.65"/>
</g>
<!-- Person&#45;&gt;wgs84_SpatialThing -->
<g id="edge2" class="edge">
<title>Person&#45;&gt;wgs84_SpatialThing</title>
<path fill="none" stroke="black" d="M88.99,-51.79C94.75,-59.85 101.78,-69.69 108.22,-78.71"/>
<polygon fill="none" stroke="black" points="105.36,-80.72 114.02,-86.82 111.05,-76.65 105.36,-80.72"/>
</g>
<!-- Invis -->
</g>
</svg>
